STARTFONT 2.1
FONT -jmk-Neep-Medium-R-Normal--10-80-75-75-C-50-ISO8859-2
SIZE 8 75 75
FONTBOUNDINGBOX 5 10 0 -2
STARTPROPERTIES 29
FONTNAME_REGISTRY ""
FOUNDRY "jmk"
FAMILY_NAME "Neep"
WEIGHT_NAME "Medium"
SLANT "R"
SETWIDTH_NAME "Normal"
ADD_STYLE_NAME ""
PIXEL_SIZE 10
POINT_SIZE 80
RESOLUTION_X 75
RESOLUTION_Y 75
SPACING "C"
AVERAGE_WIDTH 50
CHARSET_REGISTRY "ISO8859"
CHARSET_ENCODING "2"
COPYRIGHT "Jim Knoble <jmknoble@pobox.com>"
WEIGHT 140
RESOLUTION 75
X_HEIGHT 4
FIGURE_WIDTH 5
QUAD_WIDTH 5
FONT_ASCENT 8
FONT_DESCENT 2
_XMBDFED_INFO "Edited with xmbdfed 3.7."
RELATIVE_WEIGHT 50
RELATIVE_SETWIDTH 50
CAP_HEIGHT 6
UNDERLINE_POSITION -1
UNDERLINE_THICKNESS 1
ENDPROPERTIES
CHARS 256
STARTCHAR solid box
ENCODING 0
SWIDTH 600 0
DWIDTH 5 0
BBX 5 10 0 -2
BITMAP
00
70
70
70
70
70
70
70
70
00
ENDCHAR
STARTCHAR diamond
ENCODING 1
SWIDTH 600 0
DWIDTH 5 0
BBX 5 10 0 -2
BITMAP
00
00
00
20
70
F8
70
20
00
00
ENDCHAR
STARTCHAR dithered box
ENCODING 2
SWIDTH 600 0
DWIDTH 5 0
BBX 5 10 0 -2
BITMAP
00
50
A8
50
A8
50
A8
50
A8
50
ENDCHAR
STARTCHAR horizontal tab visible control
ENCODING 3
SWIDTH 600 0
DWIDTH 5 0
BBX 5 10 0 -2
BITMAP
00
A0
A0
E0
A0
00
70
20
20
20
ENDCHAR
STARTCHAR form feed visible control
ENCODING 4
SWIDTH 600 0
DWIDTH 5 0
BBX 5 10 0 -2
BITMAP
00
E0
80
C0
80
00
70
40
60
40
ENDCHAR
STARTCHAR carriage return visible control
ENCODING 5
SWIDTH 600 0
DWIDTH 5 0
BBX 5 10 0 -2
BITMAP
00
60
80
80
60
00
60
50
60
50
ENDCHAR
STARTCHAR line feed visible control
ENCODING 6
SWIDTH 600 0
DWIDTH 5 0
BBX 5 10 0 -2
BITMAP
00
80
80
80
E0
00
70
40
60
40
ENDCHAR
STARTCHAR degree sign
ENCODING 7
SWIDTH 600 0
DWIDTH 5 0
BBX 5 10 0 -2
BITMAP
00
60
90
60
00
00
00
00
00
00
ENDCHAR
STARTCHAR plus-minus-sign
ENCODING 8
SWIDTH 600 0
DWIDTH 5 0
BBX 5 10 0 -2
BITMAP
00
00
20
20
F8
20
20
00
F8
00
ENDCHAR
STARTCHAR null visible control
ENCODING 9
SWIDTH 600 0
DWIDTH 5 0
BBX 5 10 0 -2
BITMAP
00
90
D0
B0
90
00
40
40
40
70
ENDCHAR
STARTCHAR vertical tab visible control
ENCODING 10
SWIDTH 600 0
DWIDTH 5 0
BBX 5 10 0 -2
BITMAP
00
90
90
60
60
00
70
20
20
20
ENDCHAR
STARTCHAR box drawing lower right corner
ENCODING 11
SWIDTH 600 0
DWIDTH 5 0
BBX 5 10 0 -2
BITMAP
20
20
20
20
E0
00
00
00
00
00
ENDCHAR
STARTCHAR box drawing upper right corner
ENCODING 12
SWIDTH 600 0
DWIDTH 5 0
BBX 5 10 0 -2
BITMAP
00
00
00
00
E0
20
20
20
20
20
ENDCHAR
STARTCHAR box drawing upper left corner
ENCODING 13
SWIDTH 600 0
DWIDTH 5 0
BBX 5 10 0 -2
BITMAP
00
00
00
00
38
20
20
20
20
20
ENDCHAR
STARTCHAR box drawing lower left corner
ENCODING 14
SWIDTH 600 0
DWIDTH 5 0
BBX 5 10 0 -2
BITMAP
20
20
20
20
38
00
00
00
00
00
ENDCHAR
STARTCHAR box drawing cross
ENCODING 15
SWIDTH 600 0
DWIDTH 5 0
BBX 5 10 0 -2
BITMAP
20
20
20
20
F8
20
20
20
20
20
ENDCHAR
STARTCHAR box drawing horizontal line high
ENCODING 16
SWIDTH 600 0
DWIDTH 5 0
BBX 5 10 0 -2
BITMAP
F8
00
00
00
00
00
00
00
00
00
ENDCHAR
STARTCHAR box drawing horizontal line medium high
ENCODING 17
SWIDTH 600 0
DWIDTH 5 0
BBX 5 10 0 -2
BITMAP
00
00
F8
00
00
00
00
00
00
00
ENDCHAR
STARTCHAR box drawing horizontal line middle
ENCODING 18
SWIDTH 600 0
DWIDTH 5 0
BBX 5 10 0 -2
BITMAP
00
00
00
00
F8
00
00
00
00
00
ENDCHAR
STARTCHAR box drawing horizontal line medium low
ENCODING 19
SWIDTH 600 0
DWIDTH 5 0
BBX 5 10 0 -2
BITMAP
00
00
00
00
00
00
F8
00
00
00
ENDCHAR
STARTCHAR box drawing horizontal line low
ENCODING 20
SWIDTH 600 0
DWIDTH 5 0
BBX 5 10 0 -2
BITMAP
00
00
00
00
00
00
00
00
F8
00
ENDCHAR
STARTCHAR box drawing left tee
ENCODING 21
SWIDTH 600 0
DWIDTH 5 0
BBX 5 10 0 -2
BITMAP
20
20
20
20
38
20
20
20
20
20
ENDCHAR
STARTCHAR box drawing right tee
ENCODING 22
SWIDTH 600 0
DWIDTH 5 0
BBX 5 10 0 -2
BITMAP
20
20
20
20
E0
20
20
20
20
20
ENDCHAR
STARTCHAR box drawing lower tee
ENCODING 23
SWIDTH 600 0
DWIDTH 5 0
BBX 5 10 0 -2
BITMAP
20
20
20
20
F8
00
00
00
00
00
ENDCHAR
STARTCHAR box drawing upper tee
ENCODING 24
SWIDTH 600 0
DWIDTH 5 0
BBX 5 10 0 -2
BITMAP
00
00
00
00
F8
20
20
20
20
20
ENDCHAR
STARTCHAR box drawing vertical line
ENCODING 25
SWIDTH 600 0
DWIDTH 5 0
BBX 5 10 0 -2
BITMAP
20
20
20
20
20
20
20
20
20
20
ENDCHAR
STARTCHAR less-than-or-equal sign
ENCODING 26
SWIDTH 600 0
DWIDTH 5 0
BBX 5 10 0 -2
BITMAP
00
00
20
40
80
40
20
00
F0
00
ENDCHAR
STARTCHAR greater-than-or-equal sign
ENCODING 27
SWIDTH 600 0
DWIDTH 5 0
BBX 5 10 0 -2
BITMAP
00
00
40
20
10
20
40
00
F0
00
ENDCHAR
STARTCHAR greek small letter pi
ENCODING 28
SWIDTH 600 0
DWIDTH 5 0
BBX 5 10 0 -2
BITMAP
00
00
00
00
F8
50
50
50
00
00
ENDCHAR
STARTCHAR not-equal sign
ENCODING 29
SWIDTH 600 0
DWIDTH 5 0
BBX 5 10 0 -2
BITMAP
00
00
00
10
F0
20
F0
40
00
00
ENDCHAR
STARTCHAR pound sign
ENCODING 30
SWIDTH 600 0
DWIDTH 5 0
BBX 5 10 0 -2
BITMAP
00
00
20
50
40
E0
40
F0
00
00
ENDCHAR
STARTCHAR middle dot
ENCODING 31
SWIDTH 600 0
DWIDTH 5 0
BBX 5 10 0 -2
BITMAP
00
00
00
00
40
40
00
00
00
00
ENDCHAR
STARTCHAR U+0020 space
ENCODING 32
SWIDTH 600 0
DWIDTH 5 0
BBX 5 10 0 -2
BITMAP
00
00
00
00
00
00
00
00
00
00
ENDCHAR
STARTCHAR U+0021 exclamation mark
ENCODING 33
SWIDTH 600 0
DWIDTH 5 0
BBX 5 10 0 -2
BITMAP
00
00
40
40
40
40
00
40
00
00
ENDCHAR
STARTCHAR U+0022 quotation mark
ENCODING 34
SWIDTH 600 0
DWIDTH 5 0
BBX 5 10 0 -2
BITMAP
00
A0
A0
A0
00
00
00
00
00
00
ENDCHAR
STARTCHAR U+0023 number sign
ENCODING 35
SWIDTH 600 0
DWIDTH 5 0
BBX 5 10 0 -2
BITMAP
00
00
50
F8
50
50
F8
50
00
00
ENDCHAR
STARTCHAR U+0024 dollar sign
ENCODING 36
SWIDTH 600 0
DWIDTH 5 0
BBX 5 10 0 -2
BITMAP
00
00
20
70
C0
30
E0
20
00
00
ENDCHAR
STARTCHAR U+0025 percent sign
ENCODING 37
SWIDTH 600 0
DWIDTH 5 0
BBX 5 10 0 -2
BITMAP
00
00
D0
E0
20
40
70
B0
00
00
ENDCHAR
STARTCHAR U+0026 ampersand
ENCODING 38
SWIDTH 600 0
DWIDTH 5 0
BBX 5 10 0 -2
BITMAP
00
00
20
70
80
60
80
70
20
00
ENDCHAR
STARTCHAR U+0027 apostrophe
ENCODING 39
SWIDTH 600 0
DWIDTH 5 0
BBX 5 10 0 -2
BITMAP
00
20
20
40
00
00
00
00
00
00
ENDCHAR
STARTCHAR U+0028 left parenthesis
ENCODING 40
SWIDTH 600 0
DWIDTH 5 0
BBX 5 10 0 -2
BITMAP
00
10
20
40
40
40
40
20
10
00
ENDCHAR
STARTCHAR U+0029 right parenthesis
ENCODING 41
SWIDTH 600 0
DWIDTH 5 0
BBX 5 10 0 -2
BITMAP
00
80
40
20
20
20
20
40
80
00
ENDCHAR
STARTCHAR U+002a asterisk
ENCODING 42
SWIDTH 600 0
DWIDTH 5 0
BBX 5 10 0 -2
BITMAP
00
00
00
00
A0
40
A0
00
00
00
ENDCHAR
STARTCHAR U+002b plus sign
ENCODING 43
SWIDTH 600 0
DWIDTH 5 0
BBX 5 10 0 -2
BITMAP
00
00
00
20
20
F8
20
20
00
00
ENDCHAR
STARTCHAR U+002c comma
ENCODING 44
SWIDTH 600 0
DWIDTH 5 0
BBX 5 10 0 -2
BITMAP
00
00
00
00
00
00
40
40
80
00
ENDCHAR
STARTCHAR U+002d hyphen-minus
ENCODING 45
SWIDTH 600 0
DWIDTH 5 0
BBX 5 10 0 -2
BITMAP
00
00
00
00
00
F0
00
00
00
00
ENDCHAR
STARTCHAR U+002e period
ENCODING 46
SWIDTH 600 0
DWIDTH 5 0
BBX 5 10 0 -2
BITMAP
00
00
00
00
00
00
40
40
00
00
ENDCHAR
STARTCHAR U+002f forward slash
ENCODING 47
SWIDTH 600 0
DWIDTH 5 0
BBX 5 10 0 -2
BITMAP
00
10
10
20
20
40
40
80
80
00
ENDCHAR
STARTCHAR U+0030 digit zero
ENCODING 48
SWIDTH 600 0
DWIDTH 5 0
BBX 5 10 0 -2
BITMAP
00
00
20
50
90
90
A0
40
00
00
ENDCHAR
STARTCHAR U+0031 digit one
ENCODING 49
SWIDTH 600 0
DWIDTH 5 0
BBX 5 10 0 -2
BITMAP
00
00
20
60
20
20
20
20
00
00
ENDCHAR
STARTCHAR U+0032 digit two
ENCODING 50
SWIDTH 600 0
DWIDTH 5 0
BBX 5 10 0 -2
BITMAP
00
00
60
90
20
40
80
F0
00
00
ENDCHAR
STARTCHAR U+0033 digit three
ENCODING 51
SWIDTH 600 0
DWIDTH 5 0
BBX 5 10 0 -2
BITMAP
00
00
F0
10
20
10
90
60
00
00
ENDCHAR
STARTCHAR U+0034 digit four
ENCODING 52
SWIDTH 600 0
DWIDTH 5 0
BBX 5 10 0 -2
BITMAP
00
00
20
60
A0
F0
20
20
00
00
ENDCHAR
STARTCHAR U+0035 digit five
ENCODING 53
SWIDTH 600 0
DWIDTH 5 0
BBX 5 10 0 -2
BITMAP
00
00
F0
80
E0
10
90
60
00
00
ENDCHAR
STARTCHAR U+0036 digit six
ENCODING 54
SWIDTH 600 0
DWIDTH 5 0
BBX 5 10 0 -2
BITMAP
00
00
60
80
E0
90
90
60
00
00
ENDCHAR
STARTCHAR U+0037 digit seven
ENCODING 55
SWIDTH 600 0
DWIDTH 5 0
BBX 5 10 0 -2
BITMAP
00
00
F0
10
20
20
40
40
00
00
ENDCHAR
STARTCHAR U+0038 digit eight
ENCODING 56
SWIDTH 600 0
DWIDTH 5 0
BBX 5 10 0 -2
BITMAP
00
00
60
90
60
90
90
60
00
00
ENDCHAR
STARTCHAR U+0039 digit nine
ENCODING 57
SWIDTH 600 0
DWIDTH 5 0
BBX 5 10 0 -2
BITMAP
00
00
60
90
90
70
10
60
00
00
ENDCHAR
STARTCHAR U+003a colon
ENCODING 58
SWIDTH 600 0
DWIDTH 5 0
BBX 5 10 0 -2
BITMAP
00
00
00
40
40
00
40
40
00
00
ENDCHAR
STARTCHAR U+003b semicolon
ENCODING 59
SWIDTH 600 0
DWIDTH 5 0
BBX 5 10 0 -2
BITMAP
00
00
00
40
40
00
40
40
80
00
ENDCHAR
STARTCHAR U+003c less-than sign
ENCODING 60
SWIDTH 600 0
DWIDTH 5 0
BBX 5 10 0 -2
BITMAP
00
00
20
40
80
80
40
20
00
00
ENDCHAR
STARTCHAR U+003d equals sign
ENCODING 61
SWIDTH 600 0
DWIDTH 5 0
BBX 5 10 0 -2
BITMAP
00
00
00
00
F0
00
F0
00
00
00
ENDCHAR
STARTCHAR U+003e greater-than sign
ENCODING 62
SWIDTH 600 0
DWIDTH 5 0
BBX 5 10 0 -2
BITMAP
00
00
80
40
20
20
40
80
00
00
ENDCHAR
STARTCHAR U+003f question mark
ENCODING 63
SWIDTH 600 0
DWIDTH 5 0
BBX 5 10 0 -2
BITMAP
00
00
E0
10
20
40
00
40
00
00
ENDCHAR
STARTCHAR U+0040 at sign
ENCODING 64
SWIDTH 600 0
DWIDTH 5 0
BBX 5 10 0 -2
BITMAP
00
00
60
90
B0
B0
80
60
00
00
ENDCHAR
STARTCHAR U+0041 latin capital letter A
ENCODING 65
SWIDTH 600 0
DWIDTH 5 0
BBX 5 10 0 -2
BITMAP
00
00
60
90
90
F0
90
90
00
00
ENDCHAR
STARTCHAR U+0042 latin capital letter B
ENCODING 66
SWIDTH 600 0
DWIDTH 5 0
BBX 5 10 0 -2
BITMAP
00
00
C0
A0
E0
90
90
E0
00
00
ENDCHAR
STARTCHAR U+0043 latin capital letter C
ENCODING 67
SWIDTH 600 0
DWIDTH 5 0
BBX 5 10 0 -2
BITMAP
00
00
60
90
80
80
90
60
00
00
ENDCHAR
STARTCHAR U+0044 latin capital letter D
ENCODING 68
SWIDTH 600 0
DWIDTH 5 0
BBX 5 10 0 -2
BITMAP
00
00
C0
A0
90
90
A0
C0
00
00
ENDCHAR
STARTCHAR U+0045 latin capital letter E
ENCODING 69
SWIDTH 600 0
DWIDTH 5 0
BBX 5 10 0 -2
BITMAP
00
00
F0
80
E0
80
80
F0
00
00
ENDCHAR
STARTCHAR U+0046 latin capital letter F
ENCODING 70
SWIDTH 600 0
DWIDTH 5 0
BBX 5 10 0 -2
BITMAP
00
00
F0
80
E0
80
80
80
00
00
ENDCHAR
STARTCHAR U+0047 latin capital letter G
ENCODING 71
SWIDTH 600 0
DWIDTH 5 0
BBX 5 10 0 -2
BITMAP
00
00
60
90
80
B0
90
60
00
00
ENDCHAR
STARTCHAR U+0048 latin capital letter H
ENCODING 72
SWIDTH 600 0
DWIDTH 5 0
BBX 5 10 0 -2
BITMAP
00
00
90
90
F0
90
90
90
00
00
ENDCHAR
STARTCHAR U+0049 latin capital letter I
ENCODING 73
SWIDTH 600 0
DWIDTH 5 0
BBX 5 10 0 -2
BITMAP
00
00
E0
40
40
40
40
E0
00
00
ENDCHAR
STARTCHAR U+004a latin capital letter J
ENCODING 74
SWIDTH 600 0
DWIDTH 5 0
BBX 5 10 0 -2
BITMAP
00
00
30
10
10
10
90
60
00
00
ENDCHAR
STARTCHAR U+004b latin capital letter K
ENCODING 75
SWIDTH 600 0
DWIDTH 5 0
BBX 5 10 0 -2
BITMAP
00
00
90
A0
C0
A0
90
90
00
00
ENDCHAR
STARTCHAR U+004c latin capital letter L
ENCODING 76
SWIDTH 600 0
DWIDTH 5 0
BBX 5 10 0 -2
BITMAP
00
00
80
80
80
80
80
F0
00
00
ENDCHAR
STARTCHAR U+004d latin capital letter M
ENCODING 77
SWIDTH 600 0
DWIDTH 5 0
BBX 5 10 0 -2
BITMAP
00
00
90
F0
F0
90
90
90
00
00
ENDCHAR
STARTCHAR U+004e latin capital letter N
ENCODING 78
SWIDTH 600 0
DWIDTH 5 0
BBX 5 10 0 -2
BITMAP
00
00
90
D0
D0
B0
B0
90
00
00
ENDCHAR
STARTCHAR U+004f latin capital letter O
ENCODING 79
SWIDTH 600 0
DWIDTH 5 0
BBX 5 10 0 -2
BITMAP
00
00
60
90
90
90
90
60
00
00
ENDCHAR
STARTCHAR U+0050 latin capital letter P
ENCODING 80
SWIDTH 600 0
DWIDTH 5 0
BBX 5 10 0 -2
BITMAP
00
00
E0
90
E0
80
80
80
00
00
ENDCHAR
STARTCHAR U+0051 latin capital letter Q
ENCODING 81
SWIDTH 600 0
DWIDTH 5 0
BBX 5 10 0 -2
BITMAP
00
00
60
90
90
90
D0
60
30
00
ENDCHAR
STARTCHAR U+0052 latin capital letter R
ENCODING 82
SWIDTH 600 0
DWIDTH 5 0
BBX 5 10 0 -2
BITMAP
00
00
E0
90
E0
C0
A0
90
00
00
ENDCHAR
STARTCHAR U+0053 latin capital letter S
ENCODING 83
SWIDTH 600 0
DWIDTH 5 0
BBX 5 10 0 -2
BITMAP
00
00
60
90
40
20
90
60
00
00
ENDCHAR
STARTCHAR U+0054 latin capital letter T
ENCODING 84
SWIDTH 600 0
DWIDTH 5 0
BBX 5 10 0 -2
BITMAP
00
00
E0
40
40
40
40
40
00
00
ENDCHAR
STARTCHAR U+0055 latin capital letter U
ENCODING 85
SWIDTH 600 0
DWIDTH 5 0
BBX 5 10 0 -2
BITMAP
00
00
90
90
90
90
90
60
00
00
ENDCHAR
STARTCHAR U+0056 latin capital letter V
ENCODING 86
SWIDTH 600 0
DWIDTH 5 0
BBX 5 10 0 -2
BITMAP
00
00
90
90
90
60
60
60
00
00
ENDCHAR
STARTCHAR U+0057 latin capital letter W
ENCODING 87
SWIDTH 600 0
DWIDTH 5 0
BBX 5 10 0 -2
BITMAP
00
00
90
90
90
F0
F0
90
00
00
ENDCHAR
STARTCHAR U+0058 latin capital letter X
ENCODING 88
SWIDTH 600 0
DWIDTH 5 0
BBX 5 10 0 -2
BITMAP
00
00
90
90
60
60
90
90
00
00
ENDCHAR
STARTCHAR U+0059 latin capital letter Y
ENCODING 89
SWIDTH 600 0
DWIDTH 5 0
BBX 5 10 0 -2
BITMAP
00
00
90
90
90
60
20
20
00
00
ENDCHAR
STARTCHAR U+005a latin capital letter Z
ENCODING 90
SWIDTH 600 0
DWIDTH 5 0
BBX 5 10 0 -2
BITMAP
00
00
F0
10
20
40
80
F0
00
00
ENDCHAR
STARTCHAR U+005b left square bracket
ENCODING 91
SWIDTH 600 0
DWIDTH 5 0
BBX 5 10 0 -2
BITMAP
00
60
40
40
40
40
40
40
60
00
ENDCHAR
STARTCHAR U+005c backslash
ENCODING 92
SWIDTH 600 0
DWIDTH 5 0
BBX 5 10 0 -2
BITMAP
00
80
80
40
40
20
20
10
10
00
ENDCHAR
STARTCHAR U+005d right square bracket
ENCODING 93
SWIDTH 600 0
DWIDTH 5 0
BBX 5 10 0 -2
BITMAP
00
60
20
20
20
20
20
20
60
00
ENDCHAR
STARTCHAR U+005e circumflex
ENCODING 94
SWIDTH 600 0
DWIDTH 5 0
BBX 5 10 0 -2
BITMAP
00
00
60
60
90
90
00
00
00
00
ENDCHAR
STARTCHAR U+005f underscore
ENCODING 95
SWIDTH 600 0
DWIDTH 5 0
BBX 5 10 0 -2
BITMAP
00
00
00
00
00
00
00
00
F0
00
ENDCHAR
STARTCHAR U+0060 grave accent
ENCODING 96
SWIDTH 600 0
DWIDTH 5 0
BBX 5 10 0 -2
BITMAP
00
40
40
20
00
00
00
00
00
00
ENDCHAR
STARTCHAR U+0061 latin small letter a
ENCODING 97
SWIDTH 600 0
DWIDTH 5 0
BBX 5 10 0 -2
BITMAP
00
00
00
00
70
90
B0
50
00
00
ENDCHAR
STARTCHAR U+0062 latin small letter b
ENCODING 98
SWIDTH 600 0
DWIDTH 5 0
BBX 5 10 0 -2
BITMAP
00
00
80
80
E0
90
90
E0
00
00
ENDCHAR
STARTCHAR U+0063 latin small letter c
ENCODING 99
SWIDTH 600 0
DWIDTH 5 0
BBX 5 10 0 -2
BITMAP
00
00
00
00
60
80
80
60
00
00
ENDCHAR
STARTCHAR U+0064 latin small letter d
ENCODING 100
SWIDTH 600 0
DWIDTH 5 0
BBX 5 10 0 -2
BITMAP
00
00
10
10
70
90
90
70
00
00
ENDCHAR
STARTCHAR U+0065 latin small letter e
ENCODING 101
SWIDTH 600 0
DWIDTH 5 0
BBX 5 10 0 -2
BITMAP
00
00
00
00
60
B0
C0
70
00
00
ENDCHAR
STARTCHAR U+0066 latin small letter f
ENCODING 102
SWIDTH 600 0
DWIDTH 5 0
BBX 5 10 0 -2
BITMAP
00
00
20
50
40
E0
40
40
00
00
ENDCHAR
STARTCHAR U+0067 latin small letter g
ENCODING 103
SWIDTH 600 0
DWIDTH 5 0
BBX 5 10 0 -2
BITMAP
00
00
00
00
70
90
90
70
90
60
ENDCHAR
STARTCHAR U+0068 latin small letter h
ENCODING 104
SWIDTH 600 0
DWIDTH 5 0
BBX 5 10 0 -2
BITMAP
00
00
80
80
E0
90
90
90
00
00
ENDCHAR
STARTCHAR U+0069 latin small letter i
ENCODING 105
SWIDTH 600 0
DWIDTH 5 0
BBX 5 10 0 -2
BITMAP
00
00
20
00
60
20
20
20
00
00
ENDCHAR
STARTCHAR U+006a latin small letter j
ENCODING 106
SWIDTH 600 0
DWIDTH 5 0
BBX 5 10 0 -2
BITMAP
00
00
20
00
60
20
20
20
A0
40
ENDCHAR
STARTCHAR U+006b latin small letter k
ENCODING 107
SWIDTH 600 0
DWIDTH 5 0
BBX 5 10 0 -2
BITMAP
00
00
80
80
90
A0
E0
90
00
00
ENDCHAR
STARTCHAR U+006c latin small letter l
ENCODING 108
SWIDTH 600 0
DWIDTH 5 0
BBX 5 10 0 -2
BITMAP
00
00
40
40
40
40
40
20
00
00
ENDCHAR
STARTCHAR U+006d latin small letter m
ENCODING 109
SWIDTH 600 0
DWIDTH 5 0
BBX 5 10 0 -2
BITMAP
00
00
00
00
A0
F0
B0
90
00
00
ENDCHAR
STARTCHAR U+006e latin small letter n
ENCODING 110
SWIDTH 600 0
DWIDTH 5 0
BBX 5 10 0 -2
BITMAP
00
00
00
00
E0
90
90
90
00
00
ENDCHAR
STARTCHAR U+006f latin small letter o
ENCODING 111
SWIDTH 600 0
DWIDTH 5 0
BBX 5 10 0 -2
BITMAP
00
00
00
00
60
90
90
60
00
00
ENDCHAR
STARTCHAR U+0070 latin small letter p
ENCODING 112
SWIDTH 600 0
DWIDTH 5 0
BBX 5 10 0 -2
BITMAP
00
00
00
00
E0
90
90
E0
80
80
ENDCHAR
STARTCHAR U+0071 latin small letter q
ENCODING 113
SWIDTH 600 0
DWIDTH 5 0
BBX 5 10 0 -2
BITMAP
00
00
00
00
70
90
90
70
10
10
ENDCHAR
STARTCHAR U+0072 latin small letter r
ENCODING 114
SWIDTH 600 0
DWIDTH 5 0
BBX 5 10 0 -2
BITMAP
00
00
00
00
E0
90
80
80
00
00
ENDCHAR
STARTCHAR U+0073 latin small letter s
ENCODING 115
SWIDTH 600 0
DWIDTH 5 0
BBX 5 10 0 -2
BITMAP
00
00
00
00
70
C0
30
E0
00
00
ENDCHAR
STARTCHAR U+0074 latin small letter t
ENCODING 116
SWIDTH 600 0
DWIDTH 5 0
BBX 5 10 0 -2
BITMAP
00
00
40
40
E0
40
50
20
00
00
ENDCHAR
STARTCHAR U+0075 latin small letter u
ENCODING 117
SWIDTH 600 0
DWIDTH 5 0
BBX 5 10 0 -2
BITMAP
00
00
00
00
90
90
90
70
00
00
ENDCHAR
STARTCHAR U+0076 latin small letter v
ENCODING 118
SWIDTH 600 0
DWIDTH 5 0
BBX 5 10 0 -2
BITMAP
00
00
00
00
90
90
60
60
00
00
ENDCHAR
STARTCHAR U+0077 latin small letter w
ENCODING 119
SWIDTH 600 0
DWIDTH 5 0
BBX 5 10 0 -2
BITMAP
00
00
00
00
90
90
F0
90
00
00
ENDCHAR
STARTCHAR U+0078 latin small letter x
ENCODING 120
SWIDTH 600 0
DWIDTH 5 0
BBX 5 10 0 -2
BITMAP
00
00
00
00
90
60
60
90
00
00
ENDCHAR
STARTCHAR U+0079 latin small letter y
ENCODING 121
SWIDTH 600 0
DWIDTH 5 0
BBX 5 10 0 -2
BITMAP
00
00
00
00
90
90
90
70
90
60
ENDCHAR
STARTCHAR U+007a latin small letter z
ENCODING 122
SWIDTH 600 0
DWIDTH 5 0
BBX 5 10 0 -2
BITMAP
00
00
00
00
F0
20
40
F0
00
00
ENDCHAR
STARTCHAR U+007b left curly brace
ENCODING 123
SWIDTH 600 0
DWIDTH 5 0
BBX 5 10 0 -2
BITMAP
00
30
40
40
80
80
40
40
30
00
ENDCHAR
STARTCHAR U+007c vertical bar
ENCODING 124
SWIDTH 600 0
DWIDTH 5 0
BBX 5 10 0 -2
BITMAP
00
20
20
20
20
20
20
20
20
00
ENDCHAR
STARTCHAR U+007d right curly brace
ENCODING 125
SWIDTH 600 0
DWIDTH 5 0
BBX 5 10 0 -2
BITMAP
00
C0
20
20
10
10
20
20
C0
00
ENDCHAR
STARTCHAR U+007e tilde
ENCODING 126
SWIDTH 600 0
DWIDTH 5 0
BBX 5 10 0 -2
BITMAP
00
00
48
A8
90
00
00
00
00
00
ENDCHAR
STARTCHAR nil
ENCODING 127
SWIDTH 600 0
DWIDTH 5 0
BBX 5 10 0 -2
BITMAP
00
F0
90
90
90
90
90
90
F0
00
ENDCHAR
STARTCHAR nil
ENCODING 128
SWIDTH 600 0
DWIDTH 5 0
BBX 5 10 0 -2
BITMAP
00
F0
90
90
90
90
90
90
F0
00
ENDCHAR
STARTCHAR nil
ENCODING 129
SWIDTH 600 0
DWIDTH 5 0
BBX 5 10 0 -2
BITMAP
00
F0
90
90
90
90
90
90
F0
00
ENDCHAR
STARTCHAR nil
ENCODING 130
SWIDTH 600 0
DWIDTH 5 0
BBX 5 10 0 -2
BITMAP
00
F0
90
90
90
90
90
90
F0
00
ENDCHAR
STARTCHAR nil
ENCODING 131
SWIDTH 600 0
DWIDTH 5 0
BBX 5 10 0 -2
BITMAP
00
F0
90
90
90
90
90
90
F0
00
ENDCHAR
STARTCHAR nil
ENCODING 132
SWIDTH 600 0
DWIDTH 5 0
BBX 5 10 0 -2
BITMAP
00
F0
90
90
90
90
90
90
F0
00
ENDCHAR
STARTCHAR nil
ENCODING 133
SWIDTH 600 0
DWIDTH 5 0
BBX 5 10 0 -2
BITMAP
00
F0
90
90
90
90
90
90
F0
00
ENDCHAR
STARTCHAR nil
ENCODING 134
SWIDTH 600 0
DWIDTH 5 0
BBX 5 10 0 -2
BITMAP
00
F0
90
90
90
90
90
90
F0
00
ENDCHAR
STARTCHAR nil
ENCODING 135
SWIDTH 600 0
DWIDTH 5 0
BBX 5 10 0 -2
BITMAP
00
F0
90
90
90
90
90
90
F0
00
ENDCHAR
STARTCHAR nil
ENCODING 136
SWIDTH 600 0
DWIDTH 5 0
BBX 5 10 0 -2
BITMAP
00
F0
90
90
90
90
90
90
F0
00
ENDCHAR
STARTCHAR nil
ENCODING 137
SWIDTH 600 0
DWIDTH 5 0
BBX 5 10 0 -2
BITMAP
00
F0
90
90
90
90
90
90
F0
00
ENDCHAR
STARTCHAR nil
ENCODING 138
SWIDTH 600 0
DWIDTH 5 0
BBX 5 10 0 -2
BITMAP
00
F0
90
90
90
90
90
90
F0
00
ENDCHAR
STARTCHAR nil
ENCODING 139
SWIDTH 600 0
DWIDTH 5 0
BBX 5 10 0 -2
BITMAP
00
F0
90
90
90
90
90
90
F0
00
ENDCHAR
STARTCHAR nil
ENCODING 140
SWIDTH 600 0
DWIDTH 5 0
BBX 5 10 0 -2
BITMAP
00
F0
90
90
90
90
90
90
F0
00
ENDCHAR
STARTCHAR nil
ENCODING 141
SWIDTH 600 0
DWIDTH 5 0
BBX 5 10 0 -2
BITMAP
00
F0
90
90
90
90
90
90
F0
00
ENDCHAR
STARTCHAR nil
ENCODING 142
SWIDTH 600 0
DWIDTH 5 0
BBX 5 10 0 -2
BITMAP
00
F0
90
90
90
90
90
90
F0
00
ENDCHAR
STARTCHAR nil
ENCODING 143
SWIDTH 600 0
DWIDTH 5 0
BBX 5 10 0 -2
BITMAP
00
F0
90
90
90
90
90
90
F0
00
ENDCHAR
STARTCHAR nil
ENCODING 144
SWIDTH 600 0
DWIDTH 5 0
BBX 5 10 0 -2
BITMAP
00
F0
90
90
90
90
90
90
F0
00
ENDCHAR
STARTCHAR nil
ENCODING 145
SWIDTH 600 0
DWIDTH 5 0
BBX 5 10 0 -2
BITMAP
00
F0
90
90
90
90
90
90
F0
00
ENDCHAR
STARTCHAR nil
ENCODING 146
SWIDTH 600 0
DWIDTH 5 0
BBX 5 10 0 -2
BITMAP
00
F0
90
90
90
90
90
90
F0
00
ENDCHAR
STARTCHAR nil
ENCODING 147
SWIDTH 600 0
DWIDTH 5 0
BBX 5 10 0 -2
BITMAP
00
F0
90
90
90
90
90
90
F0
00
ENDCHAR
STARTCHAR nil
ENCODING 148
SWIDTH 600 0
DWIDTH 5 0
BBX 5 10 0 -2
BITMAP
00
F0
90
90
90
90
90
90
F0
00
ENDCHAR
STARTCHAR nil
ENCODING 149
SWIDTH 600 0
DWIDTH 5 0
BBX 5 10 0 -2
BITMAP
00
F0
90
90
90
90
90
90
F0
00
ENDCHAR
STARTCHAR nil
ENCODING 150
SWIDTH 600 0
DWIDTH 5 0
BBX 5 10 0 -2
BITMAP
00
F0
90
90
90
90
90
90
F0
00
ENDCHAR
STARTCHAR nil
ENCODING 151
SWIDTH 600 0
DWIDTH 5 0
BBX 5 10 0 -2
BITMAP
00
F0
90
90
90
90
90
90
F0
00
ENDCHAR
STARTCHAR nil
ENCODING 152
SWIDTH 600 0
DWIDTH 5 0
BBX 5 10 0 -2
BITMAP
00
F0
90
90
90
90
90
90
F0
00
ENDCHAR
STARTCHAR nil
ENCODING 153
SWIDTH 600 0
DWIDTH 5 0
BBX 5 10 0 -2
BITMAP
00
F0
90
90
90
90
90
90
F0
00
ENDCHAR
STARTCHAR nil
ENCODING 154
SWIDTH 600 0
DWIDTH 5 0
BBX 5 10 0 -2
BITMAP
00
F0
90
90
90
90
90
90
F0
00
ENDCHAR
STARTCHAR nil
ENCODING 155
SWIDTH 600 0
DWIDTH 5 0
BBX 5 10 0 -2
BITMAP
00
F0
90
90
90
90
90
90
F0
00
ENDCHAR
STARTCHAR nil
ENCODING 156
SWIDTH 600 0
DWIDTH 5 0
BBX 5 10 0 -2
BITMAP
00
F0
90
90
90
90
90
90
F0
00
ENDCHAR
STARTCHAR nil
ENCODING 157
SWIDTH 600 0
DWIDTH 5 0
BBX 5 10 0 -2
BITMAP
00
F0
90
90
90
90
90
90
F0
00
ENDCHAR
STARTCHAR nil
ENCODING 158
SWIDTH 600 0
DWIDTH 5 0
BBX 5 10 0 -2
BITMAP
00
F0
90
90
90
90
90
90
F0
00
ENDCHAR
STARTCHAR nil
ENCODING 159
SWIDTH 600 0
DWIDTH 5 0
BBX 5 10 0 -2
BITMAP
00
F0
90
90
90
90
90
90
F0
00
ENDCHAR
STARTCHAR U+00a0 no-break space
ENCODING 160
SWIDTH 600 0
DWIDTH 5 0
BBX 5 10 0 -2
BITMAP
00
00
00
00
00
00
00
00
00
00
ENDCHAR
STARTCHAR U+0104 latin captial letter A with ogonek
ENCODING 161
SWIDTH 600 0
DWIDTH 5 0
BBX 5 10 0 -2
BITMAP
00
00
60
90
90
F0
90
90
20
10
ENDCHAR
STARTCHAR U+02d8 breve
ENCODING 162
SWIDTH 600 0
DWIDTH 5 0
BBX 5 10 0 -2
BITMAP
00
88
70
00
00
00
00
00
00
00
ENDCHAR
STARTCHAR U+0141 latin capital letter L with stroke
ENCODING 163
SWIDTH 600 0
DWIDTH 5 0
BBX 5 10 0 -2
BITMAP
00
00
40
50
60
C0
40
78
00
00
ENDCHAR
STARTCHAR U+00a4 currency sign
ENCODING 164
SWIDTH 600 0
DWIDTH 5 0
BBX 5 10 0 -2
BITMAP
00
00
00
90
60
90
60
90
00
00
ENDCHAR
STARTCHAR U+013d latin capital letter L with caron
ENCODING 165
SWIDTH 600 0
DWIDTH 5 0
BBX 5 10 0 -2
BITMAP
90
60
00
80
80
80
80
F0
00
00
ENDCHAR
STARTCHAR U+015a latin capital letter S with acute
ENCODING 166
SWIDTH 600 0
DWIDTH 5 0
BBX 5 10 0 -2
BITMAP
20
40
00
70
80
60
10
E0
00
00
ENDCHAR
STARTCHAR U+00a7 section sign
ENCODING 167
SWIDTH 600 0
DWIDTH 5 0
BBX 5 10 0 -2
BITMAP
00
70
80
60
90
60
10
E0
00
00
ENDCHAR
STARTCHAR U+00a8 diaresis
ENCODING 168
SWIDTH 600 0
DWIDTH 5 0
BBX 5 10 0 -2
BITMAP
00
90
90
00
00
00
00
00
00
00
ENDCHAR
STARTCHAR U+0160 latin capital letter S with caron
ENCODING 169
SWIDTH 600 0
DWIDTH 5 0
BBX 5 10 0 -2
BITMAP
90
60
00
70
80
60
10
E0
00
00
ENDCHAR
STARTCHAR U+015e latin capital letter S with cedilla
ENCODING 170
SWIDTH 600 0
DWIDTH 5 0
BBX 5 10 0 -2
BITMAP
00
00
60
90
40
20
90
60
20
40
ENDCHAR
STARTCHAR U+0164 latin capital letter T with caron
ENCODING 171
SWIDTH 600 0
DWIDTH 5 0
BBX 5 10 0 -2
BITMAP
90
60
00
E0
40
40
40
40
00
00
ENDCHAR
STARTCHAR U+0179 latin capital letter Z with acute
ENCODING 172
SWIDTH 600 0
DWIDTH 5 0
BBX 5 10 0 -2
BITMAP
20
40
00
F0
10
20
40
F0
00
00
ENDCHAR
STARTCHAR U+00ad soft hyphen
ENCODING 173
SWIDTH 600 0
DWIDTH 5 0
BBX 5 10 0 -2
BITMAP
00
00
00
00
00
70
00
00
00
00
ENDCHAR
STARTCHAR U+017d latin capital letter Z with caron
ENCODING 174
SWIDTH 600 0
DWIDTH 5 0
BBX 5 10 0 -2
BITMAP
90
60
00
F0
10
20
40
F0
00
00
ENDCHAR
STARTCHAR U+017b latin capital letter Z with dot above
ENCODING 175
SWIDTH 600 0
DWIDTH 5 0
BBX 5 10 0 -2
BITMAP
20
20
00
F0
10
20
40
F0
00
00
ENDCHAR
STARTCHAR U+00b0 degree sign
ENCODING 176
SWIDTH 600 0
DWIDTH 5 0
BBX 5 10 0 -2
BITMAP
00
60
90
60
00
00
00
00
00
00
ENDCHAR
STARTCHAR U+0105 latin small letter a with ogonek
ENCODING 177
SWIDTH 600 0
DWIDTH 5 0
BBX 5 10 0 -2
BITMAP
00
00
00
00
70
90
B0
50
20
10
ENDCHAR
STARTCHAR U+02db ogonek
ENCODING 178
SWIDTH 600 0
DWIDTH 5 0
BBX 5 10 0 -2
BITMAP
00
00
00
00
00
00
00
10
20
10
ENDCHAR
STARTCHAR U+0142 latin small letter l with stroke
ENCODING 179
SWIDTH 600 0
DWIDTH 5 0
BBX 5 10 0 -2
BITMAP
00
00
40
50
60
C0
40
20
00
00
ENDCHAR
STARTCHAR U+00b4 acute accent
ENCODING 180
SWIDTH 600 0
DWIDTH 5 0
BBX 5 10 0 -2
BITMAP
00
20
40
00
00
00
00
00
00
00
ENDCHAR
STARTCHAR U+013e latin small letter l with caron
ENCODING 181
SWIDTH 600 0
DWIDTH 5 0
BBX 5 10 0 -2
BITMAP
90
60
00
40
40
40
40
20
00
00
ENDCHAR
STARTCHAR U+015b latin small letter s with acute
ENCODING 182
SWIDTH 600 0
DWIDTH 5 0
BBX 5 10 0 -2
BITMAP
00
20
40
00
70
C0
30
E0
00
00
ENDCHAR
STARTCHAR U+02c7 caron
ENCODING 183
SWIDTH 600 0
DWIDTH 5 0
BBX 5 10 0 -2
BITMAP
00
90
60
00
00
00
00
00
00
00
ENDCHAR
STARTCHAR U+00b8 cedilla
ENCODING 184
SWIDTH 600 0
DWIDTH 5 0
BBX 5 10 0 -2
BITMAP
00
00
00
00
00
00
00
40
20
40
ENDCHAR
STARTCHAR U+0161 latin small letter s with caron
ENCODING 185
SWIDTH 600 0
DWIDTH 5 0
BBX 5 10 0 -2
BITMAP
00
90
60
00
70
C0
30
E0
00
00
ENDCHAR
STARTCHAR U+015f latin small letter s with cedilla
ENCODING 186
SWIDTH 600 0
DWIDTH 5 0
BBX 5 10 0 -2
BITMAP
00
00
00
00
70
C0
30
E0
20
40
ENDCHAR
STARTCHAR U+0165 latin small letter t with caron
ENCODING 187
SWIDTH 600 0
DWIDTH 5 0
BBX 5 10 0 -2
BITMAP
90
60
00
40
E0
40
50
20
00
00
ENDCHAR
STARTCHAR U+017a latin small letter z with acute
ENCODING 188
SWIDTH 600 0
DWIDTH 5 0
BBX 5 10 0 -2
BITMAP
00
20
40
00
F0
20
40
F0
00
00
ENDCHAR
STARTCHAR U+02dd double acute accent
ENCODING 189
SWIDTH 600 0
DWIDTH 5 0
BBX 5 10 0 -2
BITMAP
00
48
90
00
00
00
00
00
00
00
ENDCHAR
STARTCHAR U+017e latin small letter z with caron
ENCODING 190
SWIDTH 600 0
DWIDTH 5 0
BBX 5 10 0 -2
BITMAP
00
90
60
00
F0
20
40
F0
00
00
ENDCHAR
STARTCHAR U+017c latin small letter z with dot above
ENCODING 191
SWIDTH 600 0
DWIDTH 5 0
BBX 5 10 0 -2
BITMAP
00
20
20
00
F0
20
40
F0
00
00
ENDCHAR
STARTCHAR U+0154 latin capital letter R with acute
ENCODING 192
SWIDTH 600 0
DWIDTH 5 0
BBX 5 10 0 -2
BITMAP
20
40
00
E0
90
E0
A0
90
00
00
ENDCHAR
STARTCHAR U+00c1 latin capital letter A with acute
ENCODING 193
SWIDTH 600 0
DWIDTH 5 0
BBX 5 10 0 -2
BITMAP
20
40
00
60
90
F0
90
90
00
00
ENDCHAR
STARTCHAR U+00c2 latin capital letter A with circumflex
ENCODING 194
SWIDTH 600 0
DWIDTH 5 0
BBX 5 10 0 -2
BITMAP
60
90
00
60
90
F0
90
90
00
00
ENDCHAR
STARTCHAR U+0102 latin capital letter A with breve
ENCODING 195
SWIDTH 600 0
DWIDTH 5 0
BBX 5 10 0 -2
BITMAP
88
70
00
60
90
F0
90
90
00
00
ENDCHAR
STARTCHAR U+00c4 latin capital letter A with diaresis
ENCODING 196
SWIDTH 600 0
DWIDTH 5 0
BBX 5 10 0 -2
BITMAP
90
90
00
60
90
F0
90
90
00
00
ENDCHAR
STARTCHAR U+0139 latin capital letter L with acute
ENCODING 197
SWIDTH 600 0
DWIDTH 5 0
BBX 5 10 0 -2
BITMAP
40
80
00
80
80
80
80
F0
00
00
ENDCHAR
STARTCHAR U+0106 latin capital letter C with acute
ENCODING 198
SWIDTH 600 0
DWIDTH 5 0
BBX 5 10 0 -2
BITMAP
20
40
00
60
90
80
90
60
00
00
ENDCHAR
STARTCHAR U+00c7 latin capital letter C with cedilla
ENCODING 199
SWIDTH 600 0
DWIDTH 5 0
BBX 5 10 0 -2
BITMAP
00
00
60
90
80
80
90
60
20
40
ENDCHAR
STARTCHAR U+010c latin capital letter C with caron
ENCODING 200
SWIDTH 600 0
DWIDTH 5 0
BBX 5 10 0 -2
BITMAP
90
60
00
60
90
80
90
60
00
00
ENDCHAR
STARTCHAR U+00c9 latin capital letter E with acute
ENCODING 201
SWIDTH 600 0
DWIDTH 5 0
BBX 5 10 0 -2
BITMAP
20
40
00
F0
80
E0
80
F0
00
00
ENDCHAR
STARTCHAR U+0118 latin capital letter E with ogonek
ENCODING 202
SWIDTH 600 0
DWIDTH 5 0
BBX 5 10 0 -2
BITMAP
00
00
F0
80
E0
80
80
F0
20
10
ENDCHAR
STARTCHAR U+00cb latin capital letter E with diaresis
ENCODING 203
SWIDTH 600 0
DWIDTH 5 0
BBX 5 10 0 -2
BITMAP
90
90
00
F0
80
E0
80
F0
00
00
ENDCHAR
STARTCHAR U+011a latin capital letter E with caron
ENCODING 204
SWIDTH 600 0
DWIDTH 5 0
BBX 5 10 0 -2
BITMAP
90
60
00
F0
80
E0
80
F0
00
00
ENDCHAR
STARTCHAR U+00cd latin capital letter I with acute
ENCODING 205
SWIDTH 600 0
DWIDTH 5 0
BBX 5 10 0 -2
BITMAP
20
40
00
E0
40
40
40
E0
00
00
ENDCHAR
STARTCHAR U+00ce latin capital letter I with circumflex
ENCODING 206
SWIDTH 600 0
DWIDTH 5 0
BBX 5 10 0 -2
BITMAP
60
90
00
E0
40
40
40
E0
00
00
ENDCHAR
STARTCHAR U+010e latin capital letter D with caron
ENCODING 207
SWIDTH 600 0
DWIDTH 5 0
BBX 5 10 0 -2
BITMAP
90
60
00
E0
90
90
90
E0
00
00
ENDCHAR
STARTCHAR U+0110 latin capital letter D with stroke
ENCODING 208
SWIDTH 600 0
DWIDTH 5 0
BBX 5 10 0 -2
BITMAP
00
00
60
50
48
E8
50
60
00
00
ENDCHAR
STARTCHAR U+0143 latin capital letter N with acute
ENCODING 209
SWIDTH 600 0
DWIDTH 5 0
BBX 5 10 0 -2
BITMAP
20
40
00
90
D0
D0
B0
90
00
00
ENDCHAR
STARTCHAR U+0147 latin capital letter N with caron
ENCODING 210
SWIDTH 600 0
DWIDTH 5 0
BBX 5 10 0 -2
BITMAP
90
60
00
90
D0
D0
B0
90
00
00
ENDCHAR
STARTCHAR U+00d3 latin capital letter O with acute
ENCODING 211
SWIDTH 600 0
DWIDTH 5 0
BBX 5 10 0 -2
BITMAP
20
40
00
60
90
90
90
60
00
00
ENDCHAR
STARTCHAR U+00d4 latin capital letter O with circumflex
ENCODING 212
SWIDTH 600 0
DWIDTH 5 0
BBX 5 10 0 -2
BITMAP
60
90
00
60
90
90
90
60
00
00
ENDCHAR
STARTCHAR U+0150 latin capital letter O with double acute
ENCODING 213
SWIDTH 600 0
DWIDTH 5 0
BBX 5 10 0 -2
BITMAP
48
90
00
60
90
90
90
60
00
00
ENDCHAR
STARTCHAR U+00d6 latin capital letter O with diaresis
ENCODING 214
SWIDTH 600 0
DWIDTH 5 0
BBX 5 10 0 -2
BITMAP
90
90
00
60
90
90
90
60
00
00
ENDCHAR
STARTCHAR U+00d7 multiplication sign
ENCODING 215
SWIDTH 600 0
DWIDTH 5 0
BBX 5 10 0 -2
BITMAP
00
00
00
88
50
20
50
88
00
00
ENDCHAR
STARTCHAR U+0158 latin capital letter R with caron
ENCODING 216
SWIDTH 600 0
DWIDTH 5 0
BBX 5 10 0 -2
BITMAP
90
60
00
E0
90
E0
A0
90
00
00
ENDCHAR
STARTCHAR U+016e latin capital letter U with ring above
ENCODING 217
SWIDTH 600 0
DWIDTH 5 0
BBX 5 10 0 -2
BITMAP
60
90
60
00
90
90
90
60
00
00
ENDCHAR
STARTCHAR U+00da latin capital letter U with acute
ENCODING 218
SWIDTH 600 0
DWIDTH 5 0
BBX 5 10 0 -2
BITMAP
20
40
00
90
90
90
90
60
00
00
ENDCHAR
STARTCHAR U+0170 latin capital letter U with double acute
ENCODING 219
SWIDTH 600 0
DWIDTH 5 0
BBX 5 10 0 -2
BITMAP
48
90
00
90
90
90
90
60
00
00
ENDCHAR
STARTCHAR U+00dc latin capital letter U with diaresis
ENCODING 220
SWIDTH 600 0
DWIDTH 5 0
BBX 5 10 0 -2
BITMAP
90
90
00
90
90
90
90
60
00
00
ENDCHAR
STARTCHAR U+00dd latin capital letter Y with acute
ENCODING 221
SWIDTH 600 0
DWIDTH 5 0
BBX 5 10 0 -2
BITMAP
20
40
00
90
90
60
20
20
00
00
ENDCHAR
STARTCHAR U+0162 latin capital letter T with cedilla
ENCODING 222
SWIDTH 600 0
DWIDTH 5 0
BBX 5 10 0 -2
BITMAP
00
00
E0
40
40
40
40
40
20
40
ENDCHAR
STARTCHAR U+00df latin small letter sharp s
ENCODING 223
SWIDTH 600 0
DWIDTH 5 0
BBX 5 10 0 -2
BITMAP
00
00
60
90
A0
90
90
A0
80
00
ENDCHAR
STARTCHAR U+0155 latin small letter r with acute
ENCODING 224
SWIDTH 600 0
DWIDTH 5 0
BBX 5 10 0 -2
BITMAP
00
20
40
00
E0
90
80
80
00
00
ENDCHAR
STARTCHAR U+00e1 latin small letter a with acute
ENCODING 225
SWIDTH 600 0
DWIDTH 5 0
BBX 5 10 0 -2
BITMAP
00
20
40
00
70
90
B0
50
00
00
ENDCHAR
STARTCHAR U+00e2 latin small letter a with circumflex
ENCODING 226
SWIDTH 600 0
DWIDTH 5 0
BBX 5 10 0 -2
BITMAP
00
60
90
00
70
90
B0
50
00
00
ENDCHAR
STARTCHAR U+0103 latin small letter a with breve
ENCODING 227
SWIDTH 600 0
DWIDTH 5 0
BBX 5 10 0 -2
BITMAP
00
88
70
00
70
90
B0
50
00
00
ENDCHAR
STARTCHAR U+00e4 latin small letter a with diaresis
ENCODING 228
SWIDTH 600 0
DWIDTH 5 0
BBX 5 10 0 -2
BITMAP
00
90
90
00
70
90
B0
50
00
00
ENDCHAR
STARTCHAR U+013a latin small letter l with acute
ENCODING 229
SWIDTH 600 0
DWIDTH 5 0
BBX 5 10 0 -2
BITMAP
20
40
00
40
40
40
40
20
00
00
ENDCHAR
STARTCHAR U+0107 latin small letter c with acute
ENCODING 230
SWIDTH 600 0
DWIDTH 5 0
BBX 5 10 0 -2
BITMAP
00
20
40
00
60
80
80
60
00
00
ENDCHAR
STARTCHAR U+00e7 latin small letter c with cedilla
ENCODING 231
SWIDTH 600 0
DWIDTH 5 0
BBX 5 10 0 -2
BITMAP
00
00
00
00
60
80
80
60
20
40
ENDCHAR
STARTCHAR U+010d latin small letter c with caron
ENCODING 232
SWIDTH 600 0
DWIDTH 5 0
BBX 5 10 0 -2
BITMAP
00
90
60
00
60
80
80
60
00
00
ENDCHAR
STARTCHAR U+00e9 latin small letter e with acute
ENCODING 233
SWIDTH 600 0
DWIDTH 5 0
BBX 5 10 0 -2
BITMAP
00
20
40
00
60
B0
C0
70
00
00
ENDCHAR
STARTCHAR U+0119 latin small letter e with ogonek
ENCODING 234
SWIDTH 600 0
DWIDTH 5 0
BBX 5 10 0 -2
BITMAP
00
00
00
00
60
B0
C0
70
20
10
ENDCHAR
STARTCHAR U+00eb latin small letter e with diaresis
ENCODING 235
SWIDTH 600 0
DWIDTH 5 0
BBX 5 10 0 -2
BITMAP
00
90
90
00
60
B0
C0
70
00
00
ENDCHAR
STARTCHAR U+011b latin small letter e with caron
ENCODING 236
SWIDTH 600 0
DWIDTH 5 0
BBX 5 10 0 -2
BITMAP
00
90
60
00
60
B0
C0
70
00
00
ENDCHAR
STARTCHAR U+00ed latin small letter i with acute
ENCODING 237
SWIDTH 600 0
DWIDTH 5 0
BBX 5 10 0 -2
BITMAP
00
10
20
00
60
20
20
20
00
00
ENDCHAR
STARTCHAR U+00ee latin small letter i with circumflex
ENCODING 238
SWIDTH 600 0
DWIDTH 5 0
BBX 5 10 0 -2
BITMAP
00
60
90
00
60
20
20
20
00
00
ENDCHAR
STARTCHAR U+010f latin small letter d with caron
ENCODING 239
SWIDTH 600 0
DWIDTH 5 0
BBX 5 10 0 -2
BITMAP
90
60
10
10
70
90
90
70
00
00
ENDCHAR
STARTCHAR U+0111 latin small letter d with stroke
ENCODING 240
SWIDTH 600 0
DWIDTH 5 0
BBX 5 10 0 -2
BITMAP
00
00
38
10
70
90
90
70
00
00
ENDCHAR
STARTCHAR U+0144 latin small letter n with acute
ENCODING 241
SWIDTH 600 0
DWIDTH 5 0
BBX 5 10 0 -2
BITMAP
00
20
40
00
E0
90
90
90
00
00
ENDCHAR
STARTCHAR U+0148 latin small letter n with caron
ENCODING 242
SWIDTH 600 0
DWIDTH 5 0
BBX 5 10 0 -2
BITMAP
00
90
60
00
E0
90
90
90
00
00
ENDCHAR
STARTCHAR U+00f3 latin small letter o with acute
ENCODING 243
SWIDTH 600 0
DWIDTH 5 0
BBX 5 10 0 -2
BITMAP
00
20
40
00
60
90
90
60
00
00
ENDCHAR
STARTCHAR U+00f4 latin small letter o with circumflex
ENCODING 244
SWIDTH 600 0
DWIDTH 5 0
BBX 5 10 0 -2
BITMAP
00
60
90
00
60
90
90
60
00
00
ENDCHAR
STARTCHAR U+0151 latin small letter o with double acute
ENCODING 245
SWIDTH 600 0
DWIDTH 5 0
BBX 5 10 0 -2
BITMAP
00
48
90
00
60
90
90
60
00
00
ENDCHAR
STARTCHAR U+00f6 latin small letter o with diaresis
ENCODING 246
SWIDTH 600 0
DWIDTH 5 0
BBX 5 10 0 -2
BITMAP
00
90
90
00
60
90
90
60
00
00
ENDCHAR
STARTCHAR U+00f7 division sign
ENCODING 247
SWIDTH 600 0
DWIDTH 5 0
BBX 5 10 0 -2
BITMAP
00
20
20
00
F8
00
20
20
00
00
ENDCHAR
STARTCHAR U+0159 latin small letter r with caron
ENCODING 248
SWIDTH 600 0
DWIDTH 5 0
BBX 5 10 0 -2
BITMAP
00
90
60
00
E0
90
80
80
00
00
ENDCHAR
STARTCHAR U+016f latin small letter u with ring above
ENCODING 249
SWIDTH 600 0
DWIDTH 5 0
BBX 5 10 0 -2
BITMAP
60
90
60
00
90
90
90
70
00
00
ENDCHAR
STARTCHAR U+00fa latin small letter u with acute
ENCODING 250
SWIDTH 600 0
DWIDTH 5 0
BBX 5 10 0 -2
BITMAP
00
20
40
00
90
90
90
70
00
00
ENDCHAR
STARTCHAR U+0171 latin small letter u with double acute
ENCODING 251
SWIDTH 600 0
DWIDTH 5 0
BBX 5 10 0 -2
BITMAP
00
48
90
00
90
90
90
70
00
00
ENDCHAR
STARTCHAR U+00fc latin small letter u with diaresis
ENCODING 252
SWIDTH 600 0
DWIDTH 5 0
BBX 5 10 0 -2
BITMAP
00
90
90
00
90
90
90
70
00
00
ENDCHAR
STARTCHAR U+00fd latin small letter y with acute
ENCODING 253
SWIDTH 600 0
DWIDTH 5 0
BBX 5 10 0 -2
BITMAP
00
20
40
00
90
90
90
70
90
60
ENDCHAR
STARTCHAR U+0163 latin small letter t with cedilla
ENCODING 254
SWIDTH 600 0
DWIDTH 5 0
BBX 5 10 0 -2
BITMAP
00
00
40
40
E0
40
50
20
10
20
ENDCHAR
STARTCHAR U+02d9 dot above
ENCODING 255
SWIDTH 600 0
DWIDTH 5 0
BBX 5 10 0 -2
BITMAP
00
20
20
00
00
00
00
00
00
00
ENDCHAR
ENDFONT
